<?xml version="1.0" standalone="no"?>
<!DOCTYPE svg PUBLIC "-//W3C//DTD SVG 20010904//EN"
 "http://www.w3.org/TR/2001/REC-SVG-20010904/DTD/svg10.dtd">
<svg version="1.0" xmlns="http://www.w3.org/2000/svg"
 width="512.000000pt" height="512.000000pt" viewBox="0 0 512.000000 512.000000"
 preserveAspectRatio="xMidYMid meet">
<metadata>
Created by potrace 1.14, written by Peter Selinger 2001-2017
</metadata>
<g transform="translate(0.000000,512.000000) scale(0.100000,-0.100000)"
fill="#000000" stroke="none">
<path d="M0 4785 c0 -214 4 -335 10 -335 13 0 50 32 50 43 0 5 6 15 14 22 12
12 15 11 20 -10 4 -16 13 -25 27 -25 16 0 18 4 11 18 -14 26 -4 40 25 34 16
-3 30 1 37 10 15 20 72 49 80 40 4 -3 10 -2 14 4 4 6 19 15 35 20 15 5 27 13
26 18 -1 11 21 26 40 26 10 0 11 -3 2 -14 -9 -10 -9 -16 -1 -21 16 -10 23 0
24 32 1 26 4 28 41 29 33 0 41 4 43 22 3 20 29 29 65 23 5 -1 23 14 41 34 30
33 33 34 49 18 14 -15 21 -15 37 -5 11 6 29 12 40 12 11 0 20 5 20 10 0 6 7
10 15 10 8 0 15 9 15 20 0 11 5 20 10 20 6 0 10 -9 10 -21 0 -25 21 -21 35 7
6 10 14 26 20 34 5 8 9 26 8 40 -1 15 2 11 9 -12 5 -21 14 -38 19 -38 12 0 11
7 -3 30 -16 25 -6 34 37 34 24 0 35 5 35 15 0 11 3 12 11 4 15 -15 39 -6 69
28 14 15 34 29 45 31 12 2 20 11 20 23 0 11 8 21 17 23 10 2 15 9 11 18 -3 8
0 14 6 14 14 0 15 -27 1 -35 -20 -12 -9 -26 18 -23 23 3 27 7 24 29 -3 24 2
29 43 42 25 9 52 14 61 10 8 -3 20 -1 27 5 6 5 21 12 32 15 11 2 -287 5 -662
6 l-683 1 0 -335z m740 25 c0 -5 -10 -10 -22 -10 -19 0 -20 2 -8 10 19 13 30
13 30 0z"/>
<path d="M2640 5031 c-129 -15 -261 -62 -400 -141 -72 -42 -112 -72 -184 -140
-71 -67 -108 -120 -130 -183 -9 -27 -22 -61 -30 -75 -23 -46 -46 -217 -51
-376 -5 -150 1 -223 31 -416 8 -52 17 -110 19 -128 2 -19 10 -50 16 -70 7 -20
14 -43 16 -51 2 -8 6 -11 9 -8 3 3 1 22 -5 43 -6 22 -13 100 -17 175 -7 134
-7 136 17 160 21 21 24 34 27 114 1 49 7 91 12 93 6 2 6 10 0 22 -7 13 -7 21
0 25 6 4 8 10 5 14 -2 5 9 36 25 70 17 34 30 64 30 67 0 17 87 129 125 160 24
21 42 40 40 44 -7 12 60 5 70 -8 15 -19 88 -42 100 -31 5 5 14 9 20 9 5 0 3
-5 -5 -10 -11 -7 -6 -8 18 -5 17 2 32 0 32 -3 0 -20 53 -62 78 -62 16 0 32 -4
37 -8 6 -5 39 -19 74 -31 51 -18 73 -21 110 -15 25 5 53 7 61 7 8 -1 31 2 50
8 19 5 60 12 90 15 30 4 58 10 61 16 3 5 10 8 15 7 5 -1 11 0 14 1 3 2 23 4
45 5 22 1 59 5 82 9 37 7 44 5 49 -11 4 -10 14 -27 23 -37 12 -14 13 -20 4
-23 -7 -3 -13 -14 -13 -26 0 -12 -4 -29 -9 -36 -6 -9 -6 -22 -1 -32 7 -12 5
-21 -5 -29 -7 -6 -11 -19 -8 -27 4 -11 2 -14 -5 -9 -7 4 -12 3 -12 -3 0 -5 6
-12 13 -14 9 -4 9 -6 -1 -6 -7 -1 -10 -5 -7 -11 12 -19 14 -50 4 -50 -6 0 -17
-7 -25 -15 -14 -13 -14 -15 1 -15 11 0 15 -5 11 -15 -5 -15 14 -21 27 -8 11
10 59 13 76 3 12 -6 6 -12 -24 -24 -21 -9 -55 -19 -76 -22 -22 -4 -49 -16 -61
-27 l-23 -20 45 9 c62 12 157 11 169 -1 7 -7 -6 -10 -37 -11 -26 -1 -60 -9
-77 -18 -16 -9 -36 -16 -43 -16 -17 0 -92 -43 -92 -52 0 -11 -3 -11 80 18 76
26 120 28 128 6 2 -7 -2 -12 -9 -11 -25 5 -83 -13 -69 -21 19 -12 -30 -81 -79
-110 -27 -16 -36 -27 -28 -32 8 -5 5 -8 -9 -8 -11 0 -35 -16 -54 -35 -19 -19
-39 -35 -46 -35 -6 0 -14 -10 -17 -21 -4 -14 -11 -20 -21 -16 -10 4 -13 1 -9
-9 7 -19 -25 -54 -50 -54 -11 0 -17 -3 -14 -7 9 -9 -13 -34 -24 -27 -5 3 -8
-3 -7 -13 1 -10 -2 -35 -6 -56 -7 -31 -4 -47 12 -81 23 -45 27 -91 16 -173 -4
-36 -3 -53 4 -53 17 0 45 -59 39 -82 -3 -11 0 -21 9 -25 19 -7 18 -23 -1 -23
-9 0 -24 -13 -33 -30 -16 -28 -73 -60 -108 -60 -8 0 -12 -4 -9 -10 11 -18 -10
-11 -45 15 -38 28 -102 36 -80 11 6 -8 33 -21 60 -29 61 -18 142 -80 171 -132
12 -22 28 -44 36 -48 25 -15 13 -35 -24 -42 -21 -4 -67 -7 -103 -6 -36 0 -95
0 -132 0 -37 0 -88 6 -115 14 -26 8 -52 13 -58 11 -5 -1 -23 -5 -39 -9 -44 -9
-14 -25 49 -25 81 0 215 -20 246 -36 20 -10 29 -22 29 -39 0 -28 -19 -45 -21
-18 -1 10 -4 5 -8 -12 -7 -33 -33 -40 -84 -23 -32 12 -51 1 -24 -13 9 -6 15
-14 12 -18 -2 -5 30 -14 73 -20 103 -16 212 -43 212 -54 0 -4 5 -5 10 -2 22
14 7 -42 -20 -75 -25 -29 -30 -32 -30 -15 -1 20 -1 20 -15 1 -12 -16 -12 -22
-2 -28 8 -5 7 -8 -5 -8 -10 0 -18 -4 -18 -10 0 -12 -67 -30 -86 -23 -8 3 -22
-1 -31 -8 -9 -8 -14 -9 -10 -3 4 7 -12 11 -51 10 -45 0 -70 7 -122 33 -35 19
-59 27 -52 19 6 -8 35 -27 64 -43 50 -26 108 -77 108 -94 0 -4 25 -28 55 -52
30 -24 55 -47 55 -51 0 -4 9 -10 20 -13 13 -4 20 -15 20 -31 0 -17 4 -23 13
-19 6 4 3 -1 -7 -9 -19 -16 -35 -20 -66 -17 -8 1 -1 -6 15 -16 17 -9 36 -16
43 -14 8 1 12 -5 10 -15 -2 -11 7 -23 21 -30 l23 -12 -23 -8 c-23 -7 -23 -8 9
-16 18 -5 32 -15 32 -23 0 -8 7 -15 15 -15 8 0 15 -4 15 -9 0 -13 50 -23 63
-12 7 5 33 12 60 16 37 6 53 4 75 -11 15 -11 34 -22 42 -25 42 -18 -178 -59
-317 -59 -183 0 -392 48 -476 110 -50 37 -107 106 -107 130 0 36 -41 151 -52
144 -6 -4 -8 0 -4 12 3 11 -3 29 -14 44 l-20 25 -20 -25 c-10 -14 -15 -27 -9
-28 5 -2 6 -8 3 -14 -4 -6 -2 -13 4 -17 8 -5 7 -15 -3 -34 -8 -15 -12 -34 -9
-42 4 -9 -1 -13 -15 -12 -15 1 -23 10 -27 35 -4 22 -9 29 -14 22 -5 -7 -15
-10 -25 -7 -22 9 -10 27 18 27 17 0 19 2 7 9 -8 6 -18 7 -22 5 -4 -3 -5 3 -1
12 6 15 4 15 -20 -1 -15 -9 -27 -24 -27 -32 0 -8 -7 -28 -16 -45 -15 -29 -18
-30 -29 -15 -15 21 -35 22 -61 1 -18 -15 -18 -15 4 -9 12 4 22 2 22 -3 0 -11
-46 -27 -87 -31 -7 0 -13 -5 -13 -11 0 -5 8 -6 18 -3 15 6 15 5 3 -11 -11 -13
-16 -14 -22 -4 -7 10 -12 9 -25 -4 -15 -14 -15 -19 -4 -33 12 -15 11 -16 -6
-13 -15 2 -18 -2 -16 -19 5 -34 -24 -29 -31 5 -3 15 -2 46 2 69 5 24 4 43 0
43 -5 0 -9 -11 -9 -25 0 -14 -6 -25 -13 -25 -15 0 -107 -117 -107 -136 0 -7
-3 -14 -7 -16 -9 -4 -52 -70 -73 -113 -8 -16 -21 -34 -27 -38 -7 -4 -13 -12
-13 -17 0 -14 -31 -50 -53 -62 -16 -8 -17 -7 -7 11 6 12 15 21 20 21 6 0 10 5
10 11 0 6 10 24 21 41 17 24 19 34 11 53 -9 19 -8 24 9 28 12 3 17 11 13 21
-3 9 0 18 8 21 22 9 19 43 -5 60 -19 13 -23 13 -46 -8 -14 -12 -19 -14 -12 -5
12 17 10 17 -39 2 -29 -9 -59 -21 -67 -27 -55 -44 -140 -129 -166 -167 -17
-25 -34 -47 -38 -50 -4 -3 -8 -14 -10 -25 -3 -11 -10 -20 -16 -20 -7 0 -18 -6
-25 -12 -9 -10 -9 -13 0 -13 22 0 13 -18 -17 -36 -17 -10 -32 -28 -36 -41 -3
-13 -9 -22 -14 -19 -4 3 -14 -7 -22 -22 -17 -34 -49 -77 -49 -66 0 4 -10 -3
-22 -16 -13 -14 -22 -35 -21 -50 2 -14 0 -19 -3 -12 -9 18 -24 14 -17 -5 5
-12 2 -15 -10 -10 -9 3 -19 2 -22 -3 -8 -13 -17 -70 -16 -103 0 -20 -5 -27
-19 -27 -17 0 -35 -42 -28 -66 1 -5 -4 -20 -12 -34 -7 -14 -15 -36 -17 -50 -2
-14 -5 -32 -7 -40 -1 -9 -5 -20 -8 -25 -6 -11 -20 -85 -23 -125 -3 -37 -4 -40
-14 -40 -9 0 -7 24 8 83 5 21 5 39 0 42 -5 3 -11 -6 -15 -20 -3 -14 -10 -25
-15 -25 -5 0 -9 -11 -9 -24 0 -14 -5 -28 -11 -32 -8 -5 -10 1 -7 20 4 17 2 24
-4 18 -5 -5 -11 -28 -13 -51 -1 -22 -9 -49 -16 -58 -12 -14 -12 -16 0 -8 11 6
13 2 7 -21 -11 -45 -24 -50 -34 -13 l-8 34 -6 -28 c-3 -16 -1 -27 6 -27 6 0 5
-4 -3 -9 -12 -8 -12 -12 -2 -25 9 -11 10 -16 2 -16 -6 0 -11 -7 -11 -15 0 -8
-4 -15 -10 -15 -5 0 -10 -6 -10 -14 0 -8 -6 -16 -12 -19 -10 -3 -10 -7 0 -20
7 -8 13 -34 14 -56 0 -23 4 -41 8 -41 4 0 7 -11 6 -25 -1 -30 -3 -30 -29 -8
-19 18 -20 17 -13 -12 4 -16 8 -41 9 -55 1 -14 6 -28 11 -31 4 -4 4 -15 -2
-24 -9 -17 -10 -16 -17 6 -4 13 -14 33 -22 44 -13 19 -14 19 -9 -7 2 -14 12
-38 21 -51 14 -21 14 -30 4 -49 -18 -33 -37 -50 -49 -43 -5 3 -10 4 -10 1 0
-3 19 -19 42 -36 l41 -30 755 0 c684 0 754 1 748 16 -3 9 -6 20 -6 25 0 6 -4
7 -10 4 -5 -3 -10 -2 -10 4 0 5 5 11 10 13 6 2 13 35 16 73 9 141 13 162 38
219 14 31 27 69 28 84 2 15 6 29 9 32 4 3 19 30 34 60 40 79 103 157 173 215
34 28 61 56 61 63 1 6 7 12 14 12 8 0 33 14 57 31 79 57 144 92 220 115 199
63 290 69 481 30 96 -20 135 -34 235 -84 105 -55 130 -73 219 -160 109 -108
210 -247 243 -335 30 -79 52 -217 52 -324 l0 -93 394 0 394 0 6 23 c10 39 7
57 -11 58 -25 1 21 14 237 69 l185 46 2 564 c2 486 0 566 -12 580 -8 9 -12 20
-8 25 5 4 0 5 -11 1 -13 -4 -17 -2 -13 8 3 8 -1 17 -9 20 -8 3 -13 9 -13 13 3
14 -29 77 -50 100 -12 12 -21 27 -21 33 0 6 -4 8 -10 5 -6 -3 -10 0 -10 9 0 8
-5 16 -11 18 -5 2 -12 12 -14 23 -2 11 -4 21 -5 23 -2 1 -4 5 -5 10 -19 63
-36 84 -50 62 -12 -19 -22 -10 -17 15 3 20 1 24 -11 19 -9 -3 -23 -17 -32 -30
-19 -29 -39 -32 -32 -5 3 15 -1 21 -17 23 -13 2 -20 9 -18 19 1 9 -3 16 -10
15 -7 0 -14 4 -15 9 -1 6 -12 13 -25 16 -13 3 -22 11 -21 17 2 7 -2 12 -7 12
-6 0 -10 7 -10 16 0 8 -5 12 -10 9 -12 -8 -35 15 -35 35 0 8 -11 20 -23 26
-13 6 -19 15 -14 18 6 3 -3 21 -21 41 -22 25 -33 32 -39 23 -5 -10 -8 -8 -8 4
0 17 -37 45 -53 40 -5 -1 -22 7 -38 19 -16 11 -36 18 -44 15 -8 -3 -21 4 -28
14 -8 11 -17 17 -20 14 -4 -4 -13 -1 -22 6 -8 7 -15 9 -15 4 0 -5 -4 -3 -9 5
-10 16 -31 6 -31 -15 0 -8 4 -12 10 -9 5 3 12 -6 16 -20 3 -14 14 -31 24 -38
17 -12 30 -34 74 -124 34 -69 35 -90 1 -61 -14 12 -25 26 -25 31 0 6 -7 17
-15 26 -81 86 -99 107 -97 114 1 4 -6 11 -15 14 -10 4 -27 17 -39 30 -28 31
-60 20 -56 -18 1 -4 -12 -16 -27 -29 -23 -17 -28 -27 -24 -50 l4 -29 -29 15
c-17 8 -35 21 -41 28 -9 11 -19 12 -46 3 -19 -5 -32 -13 -30 -16 2 -4 -4 -7
-13 -8 -89 -6 -150 -14 -177 -23 -20 -6 -41 -7 -56 -2 -16 6 -37 5 -63 -4 -37
-14 -39 -13 -24 3 8 10 22 32 30 48 9 17 29 55 45 85 17 30 38 83 48 118 21
72 20 73 -50 94 -22 7 -55 23 -73 36 -18 14 -35 22 -39 19 -3 -4 -15 0 -27 8
-26 19 -37 19 -30 1 3 -8 1 -17 -5 -20 -6 -4 -19 11 -31 34 -11 22 -24 40 -29
40 -5 0 -14 13 -21 30 -7 17 -16 30 -19 30 -4 0 -7 18 -6 40 1 30 -1 37 -11
29 -9 -8 -11 10 -9 81 2 50 7 101 10 113 6 21 6 21 -6 2 -7 -11 -39 -48 -71
-83 -32 -35 -79 -94 -104 -133 -26 -38 -49 -68 -52 -65 -3 3 1 12 7 20 7 8 10
19 7 25 -3 5 1 12 10 15 8 3 14 14 13 23 -3 26 22 113 32 113 5 0 9 -4 9 -10
0 -5 5 -10 11 -10 8 0 9 4 0 13 -6 8 -8 17 -4 20 3 4 2 7 -4 7 -11 0 -10 69 2
138 5 30 12 42 21 38 8 -3 11 0 7 10 -3 8 1 14 8 14 10 0 10 3 1 12 -7 7 -12
19 -12 27 0 11 4 10 15 -5 14 -19 14 -19 16 1 1 11 2 26 2 33 -1 6 3 12 7 12
7 0 21 68 24 119 1 14 7 26 14 29 7 2 12 17 12 33 0 16 5 29 10 29 6 0 10 11
10 24 0 14 4 27 9 31 9 5 18 60 25 153 3 43 -13 108 -30 121 -35 24 -54 90
-35 120 8 12 12 12 25 2 10 -9 16 -10 16 -3 0 6 7 9 15 6 19 -8 19 -5 -1 52
-8 25 -13 52 -10 60 3 8 1 14 -4 14 -6 0 -9 3 -8 8 1 4 -4 18 -11 30 -16 29
-9 38 12 17 14 -14 16 -13 22 5 3 10 1 30 -5 42 -10 20 -9 21 3 6 15 -19 30
-13 41 17 6 16 9 17 16 5 8 -12 10 -12 10 -1 0 7 6 11 14 8 7 -3 19 0 25 6 9
9 11 8 5 -6 -3 -10 -3 -17 2 -15 5 2 10 -1 11 -6 0 -5 8 -13 16 -17 10 -6 13
-21 10 -51 -3 -24 0 -54 6 -68 8 -20 9 -17 4 20 -6 40 -5 44 9 32 12 -9 15
-24 11 -55 l-6 -42 31 28 c33 31 67 109 58 132 -11 30 -66 -8 -67 -47 0 -20
-1 -20 -8 -5 -7 19 1 99 14 147 5 18 4 21 -3 11 -8 -11 -9 -2 -5 30 3 24 9 48
14 54 5 5 9 79 9 165 0 125 -4 170 -21 235 -12 44 -25 104 -29 133 -5 29 -15
64 -24 77 -21 32 -74 81 -105 97 -33 16 -76 48 -66 48 5 0 0 9 -10 20 -10 11
-26 20 -37 20 -10 0 -18 4 -18 9 0 11 -73 91 -84 91 -4 0 -4 -5 0 -11 4 -7 1
-10 -7 -7 -8 3 -13 11 -11 17 1 7 -33 28 -75 47 -43 20 -90 42 -104 49 -39 21
-177 53 -249 58 -36 3 -94 2 -130 -2z m-310 -285 c0 -3 -15 -12 -32 -20 l-33
-16 24 20 c21 19 41 26 41 16z m50 -16 c-8 -5 -22 -9 -30 -9 -10 0 -8 3 5 9
27 12 43 12 25 0z m-210 -33 c0 -2 -12 -14 -27 -28 l-28 -24 24 28 c23 25 31
32 31 24z m230 -11 c0 -2 -8 -10 -17 -17 -16 -13 -17 -12 -4 4 13 16 21 21 21
13z m-95 -16 c-3 -5 -12 -10 -18 -10 -7 0 -6 4 3 10 19 12 23 12 15 0z m-105
-8 c0 -5 -12 -14 -27 -21 l-28 -12 25 21 c29 22 30 23 30 12z m225 -11 c-3 -6
-11 -8 -17 -5 -6 4 -5 9 3 15 16 10 23 4 14 -10z m-330 -31 c-10 -11 -23 -20
-29 -20 -6 1 0 10 13 20 30 26 39 26 16 0z m155 17 c0 -2 -10 -12 -22 -23
l-23 -19 19 23 c18 21 26 27 26 19z m-82 -51 c-18 -19 -35 -32 -38 -29 -5 5
55 63 65 63 3 0 -9 -15 -27 -34z m-97 -19 c-17 -19 -31 -38 -29 -43 2 -5 -1
-11 -7 -12 -5 -2 -17 -9 -25 -15 -13 -11 -13 -10 -1 8 20 28 84 95 90 95 3 0
-10 -15 -28 -33z m-100 -4 c-12 -20 -14 -14 -5 12 4 9 9 14 11 11 3 -2 0 -13
-6 -23z m455 8 c-6 -9 -46 -22 -46 -15 0 3 10 9 23 14 29 11 29 11 23 1z
m-433 -28 c-7 -3 -13 -9 -13 -14 0 -6 5 -7 10 -4 16 10 12 -11 -4 -25 -12 -9
-15 -7 -14 12 2 26 18 52 27 42 3 -4 0 -9 -6 -11z m122 -3 c-3 -5 -16 -15 -28
-21 -22 -12 -22 -12 -3 10 19 21 43 30 31 11z m70 -40 c-10 -11 -23 -20 -29
-20 -6 0 0 9 14 20 32 25 38 25 15 0z m-244 -17 c-12 -20 -14 -14 -5 12 4 9 9
14 11 11 3 -2 0 -13 -6 -23z m409 -13 c-8 -5 -22 -9 -30 -9 -10 0 -8 3 5 9 27
12 43 12 25 0z m-120 -20 c0 -5 -7 -7 -15 -4 -8 4 -12 10 -9 15 6 11 24 2 24
-11z m-177 -14 c-10 -13 -20 -22 -22 -20 -4 4 29 44 36 44 2 0 -4 -11 -14 -24z
m381 6 c6 -10 -30 -9 -40 1 -4 4 2 7 14 7 11 0 23 -4 26 -8z m-354 -22 c0 -5
-5 -10 -11 -10 -5 0 -7 5 -4 10 3 6 8 10 11 10 2 0 4 -4 4 -10z m306 -3 c4 -4
-10 -6 -30 -5 -20 1 -36 5 -36 10 0 9 56 5 66 -5z m199 -16 c-6 -5 -23 -12
-40 -16 l-30 -6 30 15 c35 17 53 20 40 7z m-10 -41 c-19 -8 -19 -9 -1 -9 11
-1 17 -4 13 -7 -3 -3 -15 -3 -28 1 -17 6 -19 9 -8 16 8 5 21 8 29 8 10 0 8 -3
-5 -9z m-678 -22 c-3 -8 -6 -5 -6 6 -1 11 2 17 5 13 3 -3 4 -12 1 -19z m731
-25 c-10 -2 -28 -2 -40 0 -13 2 -5 4 17 4 22 1 32 -1 23 -4z m642 -33 c9 -16
8 -18 -5 -14 -8 4 -15 12 -15 20 0 20 7 17 20 -6z m-1393 -92 c-3 -8 -6 -5 -6
6 -1 11 2 17 5 13 3 -3 4 -12 1 -19z m1532 -140 c0 -7 -4 -22 -9 -33 -6 -16
-8 -14 -7 13 0 17 4 32 9 32 4 0 8 -6 7 -12z m-3 -113 c-4 -14 -11 -25 -16
-25 -12 0 -8 43 5 52 14 10 18 2 11 -27z m4 -54 c0 -6 -4 -12 -8 -15 -5 -3 -9
1 -9 9 0 8 4 15 9 15 4 0 8 -4 8 -9z m-130 -441 c0 -5 -2 -10 -4 -10 -3 0 -8
5 -11 10 -3 6 -1 10 4 10 6 0 11 -4 11 -10z m-53 -70 c14 0 13 -3 -3 -21 -19
-21 -82 -54 -96 -51 -5 1 -8 -2 -8 -8 0 -5 -7 -10 -16 -10 -8 0 -12 -5 -8 -11
4 -7 0 -9 -12 -6 -11 3 -37 8 -59 11 -29 5 -36 4 -24 -4 9 -5 25 -11 35 -13
11 -1 24 -5 29 -9 6 -3 25 -9 43 -13 25 -5 32 -11 27 -24 -5 -16 3 -17 71 -17
50 1 79 -3 86 -12 8 -9 7 -11 -6 -6 -9 3 -16 1 -16 -5 0 -6 4 -11 8 -11 4 0 8
-9 8 -20 0 -11 -5 -19 -11 -16 -6 2 -12 -7 -13 -21 -1 -14 -5 -30 -9 -36 -8
-13 -10 -19 -12 -43 0 -8 -5 -12 -11 -9 -5 3 -12 -7 -16 -22 -3 -15 -12 -33
-19 -38 -22 -18 -46 -88 -40 -116 4 -15 2 -30 -3 -33 -6 -3 -8 3 -5 14 4 14 0
20 -10 20 -10 0 -13 -6 -10 -20 4 -14 0 -20 -10 -20 -17 0 -33 -35 -28 -60 4
-21 -47 49 -55 74 -3 12 -12 35 -19 51 -7 17 -16 47 -20 68 -4 20 -10 37 -14
37 -4 0 -5 26 -3 58 4 61 -25 152 -49 152 -7 0 -9 3 -6 7 4 3 2 12 -4 19 -8 9
-5 18 11 34 11 11 18 26 14 32 -4 6 -3 8 3 5 6 -4 16 0 23 8 9 10 9 15 1 15
-6 0 -11 5 -11 10 0 6 9 10 20 10 17 0 20 7 20 40 0 43 14 49 38 17 44 -58
173 -55 167 5 -1 13 0 15 2 6 2 -10 12 -18 20 -18z m33 -30 c-16 -31 -23 -19
-9 16 6 16 13 24 16 17 2 -7 -1 -22 -7 -33z m-330 -440 c0 -5 -21 -23 -47 -41
l-48 -32 28 29 c15 17 27 35 27 42 0 7 9 12 20 12 11 0 20 -4 20 -10z m210
-114 c0 -3 -4 -8 -10 -11 -5 -3 -10 -1 -10 4 0 6 5 11 10 11 6 0 10 -2 10 -4z
m-370 -268 c7 -18 9 -19 9 -5 2 34 21 16 21 -19 0 -21 -4 -33 -10 -29 -5 3
-10 1 -10 -4 0 -6 -9 -11 -21 -11 -13 0 -18 4 -13 12 5 7 7 27 5 45 -3 38 6
43 19 11z m1560 -468 c0 -5 -5 -10 -11 -10 -5 0 -7 5 -4 10 3 6 8 10 11 10 2
0 4 -4 4 -10z m-2132 -90 c0 -9 -3 -7 -8 5 -5 11 -8 29 -8 40 0 16 2 15 8 -5
4 -14 8 -32 8 -40z m-62 3 c-10 -10 -19 5 -10 18 6 11 8 11 12 0 2 -7 1 -15
-2 -18z m-86 -5 c0 -16 -3 -19 -11 -11 -6 6 -8 16 -5 22 11 17 16 13 16 -11z
m2437 6 c-3 -3 -12 -4 -19 -1 -8 3 -5 6 6 6 11 1 17 -2 13 -5z m-2397 -132 c0
-2 -12 10 -26 27 -18 22 -24 37 -18 53 6 19 9 15 25 -28 11 -27 19 -50 19 -52z
m28 77 c3 -11 1 -11 -7 1 -7 10 -11 11 -11 3 0 -7 -4 -13 -10 -13 -5 0 -10 6
-10 14 0 18 33 14 38 -5z m-1 -41 c-3 -8 -6 -5 -6 6 -1 11 2 17 5 13 3 -3 4
-12 1 -19z m2447 2 c-19 -7 -18 -7 1 -12 15 -4 14 -6 -8 -7 -25 -1 -27 1 -17
19 7 12 16 17 27 13 15 -6 14 -7 -3 -13z m-2419 -33 c0 -7 7 -12 15 -11 9 1
16 -9 16 -23 2 -29 -7 -29 -32 0 -18 19 -20 27 -15 54 2 10 16 -7 16 -20z
m-25 -42 c0 -8 -2 -15 -4 -15 -2 0 -6 7 -10 15 -3 8 -1 15 4 15 6 0 10 -7 10
-15z m-243 -17 c-3 -8 -6 -5 -6 6 -1 11 2 17 5 13 3 -3 4 -12 1 -19z m278 -28
c3 -5 2 -10 -4 -10 -5 0 -13 5 -16 10 -3 6 -2 10 4 10 5 0 13 -4 16 -10z m35
-24 c0 -11 -19 -15 -25 -6 -3 5 1 10 9 10 9 0 16 -2 16 -4z m-790 -80 c0 -2
-7 -6 -15 -10 -8 -3 -15 -1 -15 4 0 6 7 10 15 10 8 0 15 -2 15 -4z m960 -851
c-7 -9 -15 -13 -19 -10 -3 3 1 10 9 15 21 14 24 12 10 -5z m-1775 -354 c3 -5
1 -12 -4 -15 -5 -3 -11 1 -15 9 -6 16 9 21 19 6z m0 -41 c3 -5 1 -10 -4 -10
-6 0 -11 5 -11 10 0 6 2 10 4 10 3 0 8 -4 11 -10z m5 -46 c0 -8 -4 -12 -10 -9
-5 3 -10 10 -10 16 0 5 5 9 10 9 6 0 10 -7 10 -16z m-80 -294 c-12 -8 -12 -10
-1 -10 8 0 12 -3 8 -6 -9 -9 -28 6 -22 17 4 5 12 9 18 9 7 0 6 -4 -3 -10z"/>
<path d="M168 4483 c6 -2 18 -2 25 0 6 3 1 5 -13 5 -14 0 -19 -2 -12 -5z"/>
<path d="M2238 3685 c-2 -3 -19 -7 -37 -9 -17 -2 -33 -5 -34 -7 -2 -2 -9 -12
-16 -21 -12 -17 -9 -18 42 -15 30 1 53 5 50 10 -2 4 -1 7 2 7 9 0 147 -73 175
-93 27 -19 44 -22 35 -7 -7 12 8 14 19 3 10 -11 40 -10 48 1 4 6 13 4 22 -3
21 -18 21 3 0 23 -19 19 -28 21 -19 4 4 -7 0 -4 -9 6 -21 26 -112 57 -163 56
-24 0 -43 4 -43 9 0 6 8 8 18 4 15 -5 15 -4 2 9 -15 16 -82 32 -92 23z m42
-25 c0 -5 -2 -10 -4 -10 -3 0 -8 5 -11 10 -3 6 -1 10 4 10 6 0 11 -4 11 -10z"/>
<path d="M3621 3648 c0 -28 2 -30 9 -13 12 28 12 45 0 45 -5 0 -10 -15 -9 -32z"/>
<path d="M3534 3637 c-8 -22 -10 -205 -1 -200 16 10 6 -52 -13 -72 -14 -15
-21 -40 -25 -86 -4 -44 -2 -58 4 -44 5 11 10 28 10 39 1 10 12 27 26 38 17 13
25 30 26 51 0 32 0 32 10 7 10 -25 10 -25 29 15 26 54 33 97 26 149 -6 40 -9
43 -34 39 l-27 -4 23 19 c12 11 22 27 22 36 0 25 -13 19 -33 -15 -20 -36 -30
-32 -29 11 1 31 -5 39 -14 17z"/>
<path d="M3390 3550 c0 -5 5 -10 10 -10 6 0 10 5 10 10 0 6 -4 10 -10 10 -5 0
-10 -4 -10 -10z"/>
<path d="M2228 3510 c-42 -12 -52 -21 -37 -30 10 -7 10 -11 0 -24 -19 -23 -5
-20 37 9 28 19 49 25 87 24 l50 0 -47 -13 c-46 -13 -118 -59 -118 -76 0 -11
51 9 65 25 16 18 52 35 74 35 l21 0 -20 -20 c-33 -33 -22 -88 21 -103 15 -5
27 8 56 63 l13 25 0 -27 c0 -15 -4 -30 -10 -33 -5 -3 -10 -12 -10 -18 1 -7 10
-1 20 12 23 26 26 61 8 79 -25 25 3 11 37 -19 19 -17 35 -39 35 -49 0 -13 6
-16 27 -12 26 5 25 6 -33 58 -71 64 -67 72 6 10 29 -25 58 -42 66 -39 8 3 14
0 14 -6 0 -6 7 -8 15 -5 8 4 15 10 15 14 0 9 -66 50 -81 50 -6 0 -27 13 -47
29 -20 16 -55 34 -77 40 -46 12 -147 13 -187 1z m160 -82 c-3 -7 -15 -15 -28
-16 -21 -3 -22 -2 -11 12 16 19 44 21 39 4z m-8 -71 c-4 -5 -17 -1 -29 9 -13
12 -17 20 -10 25 14 8 49 -23 39 -34z"/>
<path d="M3396 3103 c-6 -14 -5 -15 5 -6 7 7 10 15 7 18 -3 3 -9 -2 -12 -12z"/>
<path d="M3265 2763 c-4 -10 -9 -28 -11 -40 -1 -13 -5 -32 -9 -42 -3 -11 -1
-22 4 -25 6 -4 7 -14 4 -23 -5 -11 -3 -14 6 -9 8 5 10 18 7 32 -5 19 -3 22 11
17 16 -5 15 -4 -1 9 -14 11 -17 21 -11 34 8 21 16 64 10 64 -1 0 -6 -8 -10
-17z"/>
<path d="M3221 2564 c0 -11 3 -14 6 -6 3 7 2 16 -1 19 -3 4 -6 -2 -5 -13z"/>
<path d="M3795 2180 c-3 -5 3 -10 15 -10 12 0 18 5 15 10 -3 6 -10 10 -15 10
-5 0 -12 -4 -15 -10z"/>
<path d="M4065 2099 c-7 -10 10 -28 28 -29 12 0 8 17 -7 29 -11 9 -16 9 -21 0z"/>
<path d="M1835 1990 c3 -5 10 -10 16 -10 5 0 9 5 9 10 0 6 -7 10 -16 10 -8 0
-12 -4 -9 -10z"/>
<path d="M1816 1954 c-2 -6 4 -14 15 -17 13 -4 19 0 19 12 0 20 -27 24 -34 5z"/>
<path d="M1500 1801 c0 -17 15 -19 28 -5 11 12 9 14 -8 14 -11 0 -20 -4 -20
-9z"/>
<path d="M1550 1789 c0 -5 5 -7 10 -4 6 3 10 8 10 11 0 2 -4 4 -10 4 -5 0 -10
-5 -10 -11z"/>
<path d="M700 831 c0 -5 5 -13 10 -16 6 -3 10 -2 10 4 0 5 -4 13 -10 16 -5 3
-10 2 -10 -4z"/>
<path d="M3489 786 c-5 -5 -235 -17 -405 -21 -133 -3 -170 -5 -501 -26 l-183
-12 0 -97 0 -97 70 -6 c38 -3 85 -3 105 0 43 7 44 -4 4 -43 -49 -47 -96 -126
-124 -207 -20 -61 -25 -95 -25 -176 l0 -101 140 0 140 0 -7 28 c-5 15 -8 56
-7 92 1 114 59 206 162 257 75 37 193 39 257 6 45 -23 115 -94 138 -140 28
-53 42 -147 30 -198 l-10 -46 136 3 135 3 9 45 c9 46 -2 158 -23 232 -20 68
-124 207 -189 251 -14 9 -22 19 -19 22 3 4 49 6 102 6 l96 0 0 38 c0 21 -3 72
-6 114 -6 69 -12 86 -25 73z m-369 -46 c0 -5 -5 -10 -11 -10 -5 0 -7 5 -4 10
3 6 8 10 11 10 2 0 4 -4 4 -10z"/>
<path d="M536 502 c-3 -6 -1 -14 5 -17 14 -9 20 -2 10 14 -6 8 -11 9 -15 3z"/>
<path d="M4990 67 c-69 -16 -156 -37 -195 -47 l-70 -18 143 -1 c131 -1 224 10
245 29 5 4 7 21 5 37 l-3 30 -125 -30z"/>
</g>
</svg>
